/* XPM */
static char *_3718bc8016044e0f38c72fc9f9a9272PJ6zEoSZ09q2G4YX[] = {
/* columns rows colors chars-per-pixel */
"22 32 172 2 ",
"   c #181A1C",
".  c #1D3B1D",
"X  c #282619",
"o  c #312917",
"O  c #302919",
"+  c #2C3B1D",
"@  c #1C2424",
"#  c #262C2E",
"$  c #293A23",
"%  c #263537",
"&  c #2A3334",
"*  c #26353A",
"=  c #35373C",
"-  c #35393A",
";  c #4E3E17",
":  c #4E3E1A",
">  c #20411B",
",  c #1A4326",
"<  c #244126",
"1  c #304F31",
"2  c #3A643B",
"3  c #4E4E1E",
"4  c #5E4C1E",
"5  c #705D1F",
"6  c #41533E",
"7  c #63533B",
"8  c #5B6138",
"9  c #7B6D38",
"0  c #273B45",
"q  c #364243",
"w  c #2C5A4C",
"e  c #3E5146",
"r  c #39555C",
"t  c #3F7B47",
"y  c #365563",
"u  c #395660",
"i  c #37676C",
"p  c #445346",
"a  c #465B48",
"s  c #525150",
"d  c #51674C",
"f  c #4A7344",
"g  c #506E55",
"h  c #415F75",
"j  c #466672",
"k  c #446C7B",
"l  c #537875",
"z  c #6B756F",
"x  c #737670",
"c  c #856C22",
"v  c #8F7421",
"b  c #967525",
"n  c green",
"m  c #1BFE1B",
"M  c #20FF1B",
"N  c #2DFE2B",
"B  c #458145",
"V  c #58987F",
"C  c #678866",
"Z  c #69906F",
"A  c #6D9570",
"S  c #57A96B",
"D  c #A3851B",
"F  c #958526",
"G  c #9E8427",
"H  c #9B8338",
"J  c #AD8F26",
"K  c #AB9027",
"L  c #BB9526",
"P  c #BD9932",
"I  c #CE9F17",
"U  c #C2961E",
"Y  c #C3981D",
"T  c #D59F19",
"R  c #D2A70F",
"E  c #CDA415",
"W  c #CFAB1D",
"Q  c #D2A41B",
"!  c #D5A718",
"~  c #DBAB1B",
"^  c #DEB214",
"/  c #D8B81B",
"(  c #E4BB15",
")  c #E9BF16",
"_  c #E1B11C",
"`  c #E5BB1B",
"'  c #E9BF18",
"]  c #C29621",
"[  c #D39F21",
"{  c #C9A825",
"}  c #D7A325",
"|  c #D7B52F",
" . c #DCB92C",
".. c #CEAA35",
"X. c #D8B533",
"o. c #E7BE21",
"O. c #DBC21F",
"+. c #EEC70F",
"@. c #EEC80F",
"#. c #E6C114",
"$. c #ECC515",
"%. c #EDC812",
"&. c #ECC51B",
"*. c #F0C613",
"=. c #DCC123",
"-. c #3E7383",
";. c #457384",
":. c #497285",
">. c #437992",
",. c #7C7A84",
"<. c #45839E",
"1. c #528599",
"2. c #5C859B",
"3. c #6F8689",
"4. c #668996",
"5. c #5A9DB3",
"6. c #5799BE",
"7. c #6088A1",
"8. c #6096AC",
"9. c #749CAE",
"0. c #5EA5BD",
"q. c #63A1BE",
"w. c #71ABB5",
"e. c #76A9B9",
"r. c #579CC4",
"t. c #58AAC8",
"y. c #5CADCC",
"u. c #58A7D3",
"i. c #5BACD1",
"p. c #5BB2D0",
"a. c #6EADC4",
"s. c #62B2CE",
"d. c #7BB5CB",
"f. c #63ADD5",
"g. c #64AED8",
"h. c #69B9D8",
"j. c #76BED5",
"k. c #71BFE1",
"l. c #72C1DC",
"z. c #77C6E7",
"x. c #7AD5EF",
"c. c #7ED4F3",
"v. c #8F958D",
"b. c #AFAEAB",
"n. c #80BCD8",
"m. c #87C6DA",
"M. c #8AC7DB",
"N. c #B1CCD7",
"B. c #88CAE1",
"V. c #84CEEB",
"C. c #82D4EF",
"Z. c #9ADCE7",
"A. c #86CFF3",
"S. c #85D5F5",
"D. c #8CD5F4",
"F. c #85DAF6",
"G. c #8DD8F7",
"H. c #96D7F5",
"J. c #ACD8E7",
"K. c #96E0F3",
"L. c #B8E4ED",
"P. c #ADE1F4",
"I. c #B7E4F2",
"U. c #C8D1D1",
"Y. c #D1D4D5",
"T. c #D5D7DB",
"R. c #D9DDDC",
"E. c #CADFE2",
"W. c #C3E0F0",
"Q. c #D9EDF3",
"!. c #EEEEF2",
"~. c #F3F9F9",
/* pixels */
"n n n n n n n n n n n n n n n n n n n n n n ",
"n n n n n m n n n n n n n n n n m n n n n n ",
"n n n n n n C p p p p p p p e A n n n n n n ",
"n n n n n f U.R.R.R.T.n.N.Y.9.1.t n n n n n ",
"n n n n n < b.T.Q.Q.Q.z.J.E.9.-.# n n n n n ",
"n n n n n . s 3.Z.K.Z.s.f.a.r *   n n n n n ",
"n n n n n n n n :.d.A.y.<.h n n n n n n n n ",
"n n n n n n n n , e.x.f.:.- n n n n n n n n ",
"n n n n n n n n . e.A.y.;.= n n n n n n n n ",
"n n n n n n n n , w.c.t.;.= n n n n n n n n ",
"n n n n n n n n > w.c.i.;.= n n n n n n n n ",
"n n n n n n N n < e.A.i.:.= n n n n n n n n ",
"n n n n n n n S 4.j.S.k.5.k n n n n n n n n ",
"n n n n n n C l M.C.F.F.l.5.w A n n n n n n ",
"n n n n n n g x Q.P.S.G.h.q.0 Z n n n n n n ",
"n n n n n n v.b.~.L.F.F.z.j.i Z n n n n n n ",
"n n n n n 2 T.!.~.W.H.F.C.C.t.1.w n N n n n ",
"n n n n V w.J.I.I.B.z.G.D.D.s.6.2.B n n n n ",
"n n n 6 2.d.m.B.M.h.g.c.S.c.p.t.0.i z n n n ",
"n n d X * r y y u a.V.g.g.i.u.u.u.r.7.g n n ",
"n n $ F F v D G b 3.8.>.>.>.>.>.-.>.j @ n n ",
"n n $ | _ I ( / Q 9 q * % % % & & * #   n n ",
"n n + =.$.$.&.&.&. .X.X.X.| | ..] ] H # n n ",
"n n + O.+.$.$.$.( &.&.&.&.&.&.o. .} K O n n ",
"n n + O.%.%.%.' R ` *.@.$.&.$.$.*.~ L o n n ",
"n n $ =.$.%.$.$.` &.+.%.( _ $.$.*.} J O n n ",
"n n f { / #.' ' ) $.*.*.( ~ ` $.+.U b f n n ",
"n n n 8 b E } Q W ` &.&.&.&.! Q W 5 x n n n ",
"n n n 1 c E [ Q T ~ ^ ^ ^ ^ Q T Q 4 z n n n ",
"n n n a 9 L L L ] ] U ] U Y U U P 7 ,.n n n ",
"n n n n n 3 ; ; ; : : : ; ; : : : n n n M n ",
"n n n n n n n n n n n n n n n n n n n n n n "
};
